<?xml version="1.0" encoding="iso-8859-1"?>
<!-- Generator: Adobe Illustrator 19.0.0, SVG Export Plug-In . SVG Version: 6.00 Build 0)  -->
<svg xmlns="http://www.w3.org/2000/svg" xmlns:xlink="http://www.w3.org/1999/xlink" version="1.1" id="Capa_1" x="0px" y="0px" viewBox="0 0 512 512" style="enable-background:new 0 0 512 512;" xml:space="preserve" width="512" height="512">
<g>
	<path style="fill:#C3DDFF;" d="M430.038,439.29L256,347.153l90.753-90.753l92.137,174.038   C441.908,436.138,435.738,442.308,430.038,439.29z"/>
	<path style="fill:#A4CCFF;" d="M301.377,301.776l136.356,136.357c-1.878,1.877-4.845,2.666-7.695,1.157L256,347.153   L301.377,301.776z"/>
	<path style="fill:#A4CCFF;" d="M73.11,430.438L165.247,256.4L256,347.153L81.962,439.29   C76.262,442.308,70.092,436.138,73.11,430.438z"/>
	<path style="fill:#8BB3EA;" d="M210.624,301.777L74.267,438.133c-1.877-1.878-2.666-4.845-1.157-7.695L165.247,256.4   L210.624,301.777z"/>
	<path style="fill:#DBEAFF;" d="M430.038,73.11L256,165.247L346.753,256L438.89,81.962C441.908,76.262,435.738,70.092,430.038,73.11   z"/>
	<path style="fill:#C3DDFF;" d="M301.377,210.624L437.733,74.267c-1.878-1.877-4.845-2.666-7.695-1.157L256,165.247L301.377,210.624   z"/>
	<path style="fill:#C3DDFF;" d="M73.11,81.962L165.247,256L256,165.247L81.962,73.11C76.262,70.092,70.092,76.262,73.11,81.962z"/>
	<path style="fill:#A4CCFF;" d="M210.624,210.623L74.267,74.267c-1.877,1.878-2.666,4.845-1.157,7.695L165.247,256L210.624,210.623z   "/>
	<path style="fill:#C3DDFF;" d="M321.976,195.985l185.617,54.138c5.877,1.714,5.877,10.04,0,11.754l-185.617,54.138   c-2.875,0.838-5.122,3.086-5.961,5.961l-54.138,185.617c-1.714,5.877-10.04,5.877-11.754,0l-54.138-185.617   c-0.838-2.875-3.086-5.122-5.961-5.961L4.408,261.877c-5.877-1.714-5.877-10.04,0-11.754l185.617-54.138   c2.875-0.838,5.122-3.086,5.961-5.961L250.123,4.408c1.714-5.877,10.04-5.877,11.754,0l54.138,185.617   C316.853,192.899,319.101,195.147,321.976,195.985z"/>
	<path style="fill:#DBEAFF;" d="M316.015,190.024L261.877,4.408C261.02,1.469,258.51,0,256,0v256l62.232-62.232   C317.206,192.742,316.434,191.461,316.015,190.024z"/>
	<path style="fill:#A4CCFF;" d="M195.985,190.024L250.123,4.408C250.98,1.469,253.49,0,256,0v256l-62.232-62.232   C194.794,192.742,195.566,191.461,195.985,190.024z"/>
	<path style="fill:#C3DDFF;" d="M321.976,195.985l185.616,54.138C510.531,250.98,512,253.49,512,256H256l62.232-62.232   C319.258,194.794,320.539,195.566,321.976,195.985z"/>
	<path style="fill:#8BB3EA;" d="M321.976,316.015l185.616-54.138C510.531,261.02,512,258.51,512,256H256l62.232,62.232   C319.258,317.206,320.539,316.434,321.976,316.015z"/>
	<path style="fill:#8BB3EA;" d="M195.985,321.976l54.138,185.616C250.98,510.531,253.49,512,256,512V256l-62.232,62.232   C194.794,319.258,195.566,320.539,195.985,321.976z"/>
	<path style="fill:#8BB3EA;" d="M190.024,195.985L4.408,250.123C1.469,250.98,0,253.49,0,256h256l-62.232-62.232   C192.742,194.794,191.461,195.566,190.024,195.985z"/>
	<path style="fill:#A4CCFF;" d="M190.024,316.015L4.408,261.877C1.469,261.02,0,258.51,0,256h256l-62.232,62.232   C192.742,317.206,191.461,316.434,190.024,316.015z"/>
</g>















</svg>
